<svg xmlns="http://www.w3.org/2000/svg" xmlns:xlink="http://www.w3.org/1999/xlink" width="194" zoomAndPan="magnify" viewBox="0 0 145.92 424.08" height="553" preserveAspectRatio="xMidYMid meet" version="1.2"><defs><clipPath id="b3e4751ef6"><path d="M 18 86.171875 L 112 86.171875 L 112 172.984375 L 18 172.984375 Z M 18 86.171875 "/></clipPath></defs><g id="e5c9e93004"><path style=" stroke:none;fill-rule:nonzero;fill:#2b1818;fill-opacity:1;" d="M 110.761719 112.179688 C 110.761719 112.179688 115.988281 115.398438 119.113281 123.371094 C 124.921875 138.203125 129.257812 162.953125 120.054688 168.039062 C 118.066406 169.140625 112.851562 155.050781 112.851562 155.050781 C 112.851562 155.050781 115.855469 146.769531 115.339844 134.582031 C 114.839844 122.75 110.761719 112.179688 110.761719 112.179688 Z M 110.761719 112.179688 "/><g clip-rule="nonzero" clip-path="url(#b3e4751ef6)"><path style=" stroke:none;fill-rule:nonzero;fill:#381e1e;fill-opacity:1;" d="M 18.898438 133 C 19.605469 107.199219 40.851562 84.492188 67.796875 86.269531 C 103.496094 86.566406 111.765625 113.09375 111.765625 113.09375 C 111.765625 113.09375 70.703125 112.078125 66.105469 136.957031 C 64.78125 180.820312 44.378906 173.9375 35.445312 170.179688 C 20.890625 164.058594 18.511719 147.230469 18.898438 133 Z M 18.898438 133 "/></g><path style=" stroke:none;fill-rule:nonzero;fill:#ff0000;fill-opacity:1;" d="M 50.273438 121.207031 C 50.273438 127.636719 44.96875 132.851562 38.425781 132.851562 C 31.882812 132.851562 26.578125 127.636719 26.578125 121.207031 C 26.578125 114.773438 31.882812 109.5625 38.425781 109.5625 C 44.96875 109.5625 50.273438 114.773438 50.273438 121.207031 Z M 50.273438 121.207031 "/><path style=" stroke:none;fill-rule:nonzero;fill:#4b2929;fill-opacity:1;" d="M 47.246094 120.765625 C 47.246094 126.136719 42.550781 130.492188 36.761719 130.492188 C 30.972656 130.492188 20.949219 174.371094 16.242188 171.765625 C -1.472656 161.972656 17.6875 109.5625 36.761719 111.035156 C 42.535156 111.480469 47.246094 115.390625 47.246094 120.765625 Z M 47.246094 120.765625 "/></g></svg>