<svg xmlns="http://www.w3.org/2000/svg" xmlns:xlink="http://www.w3.org/1999/xlink" width="194" zoomAndPan="magnify" viewBox="0 0 145.92 424.08" height="553" preserveAspectRatio="xMidYMid meet" version="1.2"><defs><clipPath id="4f13f88846"><path d="M 0.117188 86.171875 L 38 86.171875 L 38 146 L 0.117188 146 Z M 0.117188 86.171875 "/></clipPath><clipPath id="01c85774f0"><path d="M 22 88 L 112.375 88 L 112.375 172.984375 L 22 172.984375 Z M 22 88 "/></clipPath></defs><g id="85bcbc21b3"><g clip-rule="nonzero" clip-path="url(#4f13f88846)"><path style=" stroke:none;fill-rule:nonzero;fill:#381e1e;fill-opacity:1;" d="M 37.070312 95.648438 C 37.070312 100.867188 32.515625 105.097656 26.894531 105.097656 C 21.269531 105.097656 11.535156 147.707031 6.964844 145.175781 C -10.238281 135.664062 8.367188 84.769531 26.894531 86.203125 C 32.496094 86.636719 37.070312 90.433594 37.070312 95.648438 Z M 37.070312 95.648438 "/></g><path style=" stroke:none;fill-rule:nonzero;fill:#ff0000;fill-opacity:1;" d="M 40.539062 96.894531 C 41.800781 98.207031 41.925781 100.128906 36.199219 105.613281 C 29.644531 111.890625 28.554688 110.890625 27.296875 109.578125 C 26.035156 108.265625 25.910156 106.34375 31.636719 100.859375 C 38.398438 94.386719 39.28125 95.582031 40.539062 96.894531 Z M 40.539062 96.894531 "/><g clip-rule="nonzero" clip-path="url(#01c85774f0)"><path style=" stroke:none;fill-rule:nonzero;fill:#381e1e;fill-opacity:1;" d="M 22.164062 134.15625 C 22.847656 109.105469 43.480469 87.050781 69.648438 88.777344 C 104.316406 89.066406 112.34375 114.824219 112.34375 114.824219 C 112.34375 114.824219 72.46875 113.839844 68.003906 137.996094 C 66.71875 180.59375 46.90625 173.910156 38.230469 170.261719 C 24.09375 164.316406 21.785156 147.972656 22.164062 134.15625 Z M 22.164062 134.15625 "/></g></g></svg>